PathFileType	4	(X/Y/Z)	/home/alexbeat/data/kuopio-gait-dataset/01/mocap/calib_static_markers.trc
DataRate	CameraRate	NumFrames	NumMarkers	Units	OrigDataRate	OrigDataStartFrame	OrigNumFrames
100.000000	100.000000	4	70	mm	100.000000	0	211
Frame#	Time	Pelvis1			Pelvis2			Pelvis3			Pelvis4			Torso1			Torso2			Torso3			Torso4			RFemur1			RFemur2			RFemur3			RFemur4			LFemur1			LFemur2			LFemur3			LFemur4			RTibia1			RTibia2			RTibia3			RTibia4			LTibia1			LTibia2			LTibia3			LTibia4			LFoot1			LFoot2			LFoot3			RFoot1			RFoot2			RFoot3			*30			*31			*32			*33			*34			*35			*36			*37			*38			Pelvis_RFemur_score			Pelvis_LFemur_score			RFemur_RTibia_score			RFemur_RTibia_sara			LFemur_LTibia_score			LFemur_LTibia_sara			RKnee			LKnee			RTibia_RFoot_score			LTibia_LFoot_score			USERMO0			USERMO1			USERMO2			USERMO3			USERMO4			USERMO5			USERMO6			USERMO7			USERMO8			USERMO9			USERMO10			USERMO11			USERMO12			USERMO13			USERMO14			USERMO15			USERMO16			USERMO17			USERMO18			USERMO19			USERMO20			
		X1	Y1	Z1	X2	Y2	Z2	X3	Y3	Z3	X4	Y4	Z4	X5	Y5	Z5	X6	Y6	Z6	X7	Y7	Z7	X8	Y8	Z8	X9	Y9	Z9	X10	Y10	Z10	X11	Y11	Z11	X12	Y12	Z12	X13	Y13	Z13	X14	Y14	Z14	X15	Y15	Z15	X16	Y16	Z16	X17	Y17	Z17	X18	Y18	Z18	X19	Y19	Z19	X20	Y20	Z20	X21	Y21	Z21	X22	Y22	Z22	X23	Y23	Z23	X24	Y24	Z24	X25	Y25	Z25	X26	Y26	Z26	X27	Y27	Z27	X28	Y28	Z28	X29	Y29	Z29	X30	Y30	Z30	X31	Y31	Z31	X32	Y32	Z32	X33	Y33	Z33	X34	Y34	Z34	X35	Y35	Z35	X36	Y36	Z36	X37	Y37	Z37	X38	Y38	Z38	X39	Y39	Z39	X40	Y40	Z40	X41	Y41	Z41	X42	Y42	Z42	X43	Y43	Z43	X44	Y44	Z44	X45	Y45	Z45	X46	Y46	Z46	X47	Y47	Z47	X48	Y48	Z48	X49	Y49	Z49	X50	Y50	Z50	X51	Y51	Z51	X52	Y52	Z52	X53	Y53	Z53	X54	Y54	Z54	X55	Y55	Z55	X56	Y56	Z56	X57	Y57	Z57	X58	Y58	Z58	X59	Y59	Z59	X60	Y60	Z60	X61	Y61	Z61	X62	Y62	Z62	X63	Y63	Z63	X64	Y64	Z64	X65	Y65	Z65	X66	Y66	Z66	X67	Y67	Z67	X68	Y68	Z68	X69	Y69	Z69	X70	Y70	Z70	

1	0	307.196533203125	1027.444580078125	343.7849426269532	226.4578399658203	1030.208740234375	346.4146728515626	228.3842926025391	916.0736083984375	314.5907897949219	298.1347961425781	916.7061157226562	313.4714355468751	262.8233947753906	1423.010620117188	501.3201599121095	91.83946228027344	1440.395629882812	445.6620178222657	436.2188110351562	1465.121826171875	439.8493652343751	254.4514923095703	1491.118408203125	367.6873168945313	91.46604156494141	647.4188842773438	397.4482727050782	101.7035980224609	545.2089233398438	393.6373291015626	90.03607177734375	592.3776245117188	421.9479980468751	85.34619903564453	591.6587524414062	459.1600952148439	434.6708679199219	668.8128662109375	421.4063110351562	433.9212341308594	632.2872314453125	482.6670227050782	423.7117004394531	563.1546630859375	422.3460693359376	434.8226318359375	634.1937866210938	440.7104492187501	93.27843475341797	363.6181640625	377.0082092285156	97.36424255371094	419.2147827148438	396.0820617675781	91.90768432617188	317.6499328613281	391.7590637207031	109.7587127685547	366.4747314453125	338.6208190917969	426.6678466796875	372.4898376464844	363.3395080566406	432.3748779296875	350.4011840820312	405.0322875976562	424.1932373046875	285.2523193359375	412.7763977050781	424.951171875	394.6399536132812	429.9828186035156	335.3011779785156	28.14409255981443	320.4410095214844	377.8080444335938	23.28789901733395	555.3426513671875	421.9519348144531	23.20138359069821	505.9720764160156	179.6437835693359	26.51214790344236	331.5062255859375	118.2156524658203	22.22922134399411	562.0139770507812	76.24826049804688	20.99967193603513	506.0085144042969	1498.048217773438	615.1633911132814	-1841.62744140625	1584.298461914062	704.5326538085939	-1909.354736328125	1626.975341796875	662.8061523437501	-1802.661499023438	1628.145263671875	658.3449707031251	-1821.165771484375	nan	nan	nan	nan	nan	nan	nan	nan	nan	nan	nan	nan	nan	nan	nan	140.3040771484375	904.1371459960938	452.3403625488282	375.8985900878906	892.2592163085938	456.8985290527344	145.5995635986328	461.2474670410156	416.8999633789062	244.3469543457031	466.851318359375	431.6494445800782	364.5989074707031	458.47607421875	432.8175964355469	264.7197570800781	461.3895874023438	436.7760925292969	145.6000061035156	461.2470092773438	416.8999938964844	364.5989990234375	458.4760131835938	432.8179931640625	222.2845458984375	8.549729347228983	357.470947265625	373.2407836914062	18.591100692749	337.6129150390625	-0.8920256495475769	-0.7365151643753051	-1.481834173202515	0.4308488070964813	0.6214322447776794	0.4421459138393403	0.1000000014901161	0.1000000014901161	-0.1000000014901161	-0.0003515231364872307	-1.385828495025635	-0.02911147847771653	0.3783537447452545	0.02487779408693311	0.4605852663516998	0.1000000014901161	0.1000000014901161	-0.1000000014901161	-1.074818253517151	-0.6349021792411803	-1.399770021438599	0.4277713000774384	0.3360331058502197	0.3937131762504578	0.1000000014901161	0.1000000014901161	-0.1000000014901161	-0.07447701692581177	-1.903220772743225	-2.506576538085938	0.2539715468883514	0.9913339018821716	0.3349358439445497	0.1000000014901161	0.1000000014901161	-0.1000000014901161	2.462965965270996	-2.238271236419678	0.2062751501798629	0.09448359161615372	0.5949930548667908	0.4043860733509065	0.1000000014901161	0.1000000014901161	-0.1000000014901161	-1.882118225097656	-0.02772718481719479	-2.469465970993042	0.1247025728225708	0.02324701473116872	0.466509610414505	0.1000000014901161	0.1000000014901161	-0.1000000014901161	2.464694976806641	2.320308923721313	0.3345566689968111	0.09420819580554962	0.3668234348297119	0.3882468342781067	0.1000000014901161	0.1000000014901161	-0.1000000014901161	
2	0.01	307.1962890625	1027.441284179688	343.7547302246094	226.4521942138672	1030.203125	346.4002380371094	228.4074554443359	916.0712890625	314.5699462890626	298.15380859375	916.69873046875	313.4483337402344	262.7997741699219	1422.991455078125	501.3060913085939	91.83977508544922	1440.3720703125	445.6394042968751	436.2010192871094	1465.118041992188	439.8298645019532	254.4613647460938	1491.112182617188	367.7021484375001	91.50267028808594	647.4152221679688	397.4168090820312	101.7071304321289	545.2010498046875	393.6301574707032	90.04365539550781	592.3678588867188	421.9328308105469	85.35017395019531	591.654541015625	459.1572570800782	434.6676635742188	668.80517578125	421.4205017089844	433.9067687988281	632.305419921875	482.6943969726562	423.7044067382812	563.1663208007812	422.3527526855469	434.8266296386719	634.173828125	440.7217712402344	93.26654815673828	363.6451416015625	377.0108032226562	97.37359619140625	419.20849609375	396.0760498046875	91.85010528564453	317.6566467285156	391.7522888183594	109.7711029052734	366.4747009277344	338.6089477539062	426.6603393554688	372.48095703125	363.3374328613281	432.36865234375	350.3915710449219	405.0346984863281	424.1888122558594	285.2434997558594	412.776123046875	424.9426574707031	394.6291809082031	429.9867553710938	335.3072509765625	28.14089202880857	320.4395141601562	377.8035583496094	23.28379058837887	555.3603515625	421.9530944824219	23.19498634338376	505.9678039550781	179.6511993408203	26.51870346069334	331.5120239257812	118.2220916748047	22.23221778869625	562.0193481445312	76.25109100341797	21.00225257873532	506.0103454589844	1498.127075195312	615.2290039062501	-1841.611572265625	1584.283203125	704.5369262695314	-1909.358032226562	1627.242797851562	662.8386840820314	-1802.658081054688	1628.140869140625	658.3337402343751	-1821.189208984375	-3557.356689453125	994.5773315429688	673.3551635742189	-3552.794921875	971.51904296875	669.4439086914064	nan	nan	nan	nan	nan	nan	nan	nan	nan	140.3711242675781	904.1165771484375	452.3107604980469	375.9212646484375	892.2689819335938	456.8792419433594	145.5998687744141	461.2220764160156	416.9197082519531	244.3443908691406	466.77685546875	431.7070922851562	364.5849914550781	458.4725646972656	432.8229064941406	264.7055053710938	461.3883361816406	436.7705383300781	145.6000061035156	461.2219848632812	416.9200134277344	364.5849914550781	458.4729919433594	432.822998046875	222.1665954589844	8.515706062316873	357.5001525878906	373.2458801269531	18.58367538452146	337.6116027832031	-0.8919495940208435	-0.7366737723350524	-1.482014536857605	0.4308432340621948	0.621432900428772	0.4421607553958893	0.1000000014901161	0.1000000014901161	-0.1000000014901161	-0.0003922307514585555	-1.385860204696655	-0.02915015071630486	0.3783546686172485	0.02487322315573689	0.4605892598628998	0.1000000014901161	0.1000000014901161	-0.1000000014901161	-1.074782013893127	-0.6349055767059325	-1.399744987487793	0.4277651906013489	0.3360237777233124	0.3937138617038727	0.1000000014901161	0.1000000014901161	-0.1000000014901161	-0.07441948354244232	-1.903123736381531	-2.506435871124268	0.2539780735969543	0.9913275241851807	0.3349145054817201	0.1000000014901161	0.1000000014901161	-0.1000000014901161	2.462625503540039	-2.238627195358276	0.2067290544509887	0.09449954330921173	0.5949841141700745	0.404372274875641	0.1000000014901161	0.1000000014901161	-0.1000000014901161	-1.882087230682373	-0.02773350290954098	-2.46946120262146	0.1247081384062767	0.02325106039643285	0.4665139317512512	0.1000000014901161	0.1000000014901161	-0.1000000014901161	2.465004205703735	2.319219589233398	0.3353954553604128	0.09418924897909164	0.3668325841426849	0.3882390856742859	0.1000000014901161	0.1000000014901161	-0.1000000014901161	
3	0.02	307.2110290527344	1027.440673828125	343.7339782714844	226.4863433837891	1030.187377929688	346.3896179199219	228.4050445556641	916.0589599609375	314.5552978515626	298.1691589355469	916.6873168945312	313.4444580078126	262.8191528320312	1422.982055664062	501.2961425781251	91.82640838623047	1440.350830078125	445.6219177246095	436.1952514648438	1465.117553710938	439.8345947265626	254.44677734375	1491.11474609375	367.6914062500001	91.50536346435547	647.3910522460938	397.4184570312501	101.7255096435547	545.1820678710938	393.6118469238282	90.04036712646484	592.400634765625	421.9403991699219	85.36137390136719	591.6768188476562	459.1485595703126	434.6722106933594	668.8007202148438	421.4328613281251	433.8992004394531	632.3094482421875	482.6681518554689	423.6958618164062	563.1316528320312	422.3584289550782	434.8172302246094	634.1641235351562	440.7095031738282	93.25326538085938	363.6668395996094	377.0217895507812	97.39993286132812	419.1914367675781	396.0651550292969	91.86906433105469	317.6599426269531	391.7497253417969	109.7783889770508	366.4703979492188	338.6027221679688	426.6687316894531	372.4762573242188	363.3406372070312	432.3424682617188	350.37451171875	405.0317077636719	424.1769409179688	285.2303466796875	412.7716064453125	424.9493408203125	394.6194152832031	429.9909057617188	335.3223266601562	28.12200546264646	320.4461669921875	377.8016052246094	23.28799057006832	555.3466186523438	421.9593811035156	23.1876182556152	505.9742736816406	179.6390533447266	26.5009136199951	331.4832458496094	118.2159576416016	22.23645210266109	562.0128173828125	76.24974060058594	21.00826835632321	506.0071411132812	1498.154052734375	615.1798706054689	-1841.63037109375	1584.310180664062	704.5494384765626	-1909.369750976562	nan	nan	nan	1628.136596679688	658.3303833007814	-1821.188110351562	nan	nan	nan	nan	nan	nan	nan	nan	nan	nan	nan	nan	nan	nan	nan	140.3706359863281	904.1250610351562	452.2857360839844	375.9360046386719	892.2614135742188	456.8480834960939	145.6246032714844	461.2244567871094	416.9161071777344	244.3714752197266	466.7795715332031	431.6875915527344	364.5827331542969	458.4676818847656	432.8298645019531	264.7031860351562	461.395751953125	436.767333984375	145.625	461.2239990234375	416.9159851074219	364.5830078125	458.4679870605469	432.8299865722656	222.1418151855469	8.498764991760233	357.479736328125	373.2213439941406	18.57564544677732	337.5942993164062	-0.8920185565948486	-0.7368337512016295	-1.482096552848816	0.4308377206325531	0.621421754360199	0.442155957221985	0.1000000014901161	0.1000000014901161	-0.1000000014901161	-0.00057348603149876	-1.385916829109192	-0.02916910313069828	0.3783611357212067	0.02486587315797803	0.4605890512466431	0.1000000014901161	0.1000000014901161	-0.1000000014901161	-1.074731349945068	-0.634826898574829	-1.399987101554871	0.4277576208114624	0.3360132873058319	0.3937126100063324	0.1000000014901161	0.1000000014901161	-0.1000000014901161	-0.07455377280712128	-1.903204441070557	-2.506393194198608	0.2539950609207153	0.9913185238838196	0.3349016010761262	0.1000000014901161	0.1000000014901161	-0.1000000014901161	2.462645530700684	-2.238412380218506	0.2068017125129699	0.09450609982013702	0.5949854254722595	0.4043675959110261	0.1000000014901161	0.1000000014901161	-0.1000000014901161	-1.882258772850037	-0.02769926376640782	-2.469501256942749	0.124701589345932	0.02324854582548138	0.4665010869503021	0.1000000014901161	0.1000000014901161	-0.1000000014901161	2.465305805206299	2.319160223007202	0.335068464279175	0.09420237690210342	0.3668343424797058	0.3882379531860352	0.1000000014901161	0.1000000014901161	-0.1000000014901161	
4	0.03	307.2111206054688	1027.436157226562	343.7249755859376	226.4691619873047	1030.202026367188	346.3530883789062	228.4069213867188	916.0551147460938	314.5448303222657	298.1585388183594	916.6898803710938	313.4153747558594	262.8125305175781	1422.9755859375	501.2751770019532	91.81395721435547	1440.34521484375	445.6051635742189	436.1856079101562	1465.120239257812	439.8245239257813	254.4220123291016	1491.1259765625	367.6943359375001	91.49208831787109	647.4130859375	397.4139404296876	101.7160568237305	545.202392578125	393.6073303222657	90.05280303955078	592.400390625	421.9437561035157	85.37325286865234	591.6824340820312	459.1208190917969	434.6743774414062	668.8038330078125	421.4300842285157	433.8612976074219	632.302734375	482.6806335449219	423.7217407226562	563.1524047851562	422.3685302734376	434.8283996582031	634.1785888671875	440.7335815429689	93.25575256347656	363.6663513183594	377.0130310058594	97.39359283447266	419.1996765136719	396.0672302246094	91.85572052001953	317.6799011230469	391.7451782226562	109.7723922729492	366.4712829589844	338.6007385253906	426.655517578125	372.4596862792969	363.333740234375	432.3460693359375	350.3819885253906	405.0486755371094	424.1543273925781	285.2232055664062	412.78955078125	424.9502563476562	394.6375732421875	429.9926147460938	335.3077087402344	28.13649940490721	320.4234313964844	377.7953796386719	23.27854347229	555.3585815429688	421.95361328125	23.19322586059567	505.9783325195312	179.6524963378906	26.5090980529785	331.4852905273438	118.2238311767578	22.23150253295895	562.02392578125	76.24282073974609	21.01354408264157	506.0173950195312	1498.113403320312	615.1378784179689	-1841.6376953125	1584.31396484375	704.5534667968751	-1909.373291015625	1627.407592773438	662.8612060546876	-1802.647827148438	1628.137329101562	658.3185424804689	-1821.197631835938	nan	nan	nan	nan	nan	nan	nan	nan	nan	nan	nan	nan	nan	nan	nan	140.3543090820312	904.1366577148438	452.2703247070312	375.8954467773438	892.262939453125	456.8250122070312	145.6288909912109	461.2340087890625	416.8992004394531	244.3773498535156	466.7883911132812	431.6602478027344	364.6097106933594	458.4760131835938	432.8057250976562	264.7289428710938	461.4054870605469	436.7097473144531	145.6289978027344	461.2340087890625	416.8989868164062	364.6099853515625	458.4760131835938	432.8059997558594	222.1273956298828	8.49646759033201	357.4887390136719	373.1787414550781	18.58059310913084	337.6425476074219	-0.8914045691490173	-0.7374923229217528	-1.48236346244812	0.4308383464813232	0.6214295625686646	0.4421662688255311	0.1000000014901161	0.1000000014901161	-0.1000000014901161	-0.0003312962653581053	-1.385917663574219	-0.02910315431654461	0.3783522546291351	0.02486942335963246	0.460586816072464	0.1000000014901161	0.1000000014901161	-0.1000000014901161	-1.075101375579834	-0.6348412036895751	-1.400014519691467	0.4277459383010864	0.3360113203525543	0.3937236964702606	0.1000000014901161	0.1000000014901161	-0.1000000014901161	-0.07444750517606735	-1.90330708026886	-2.506418943405151	0.2539884448051453	0.9913212060928345	0.3348783850669861	0.1000000014901161	0.1000000014901161	-0.1000000014901161	2.462623596191406	-2.238269329071045	0.2063309848308562	0.09450236707925797	0.5949984788894653	0.404358595609665	0.1000000014901161	0.1000000014901161	-0.1000000014901161	-1.882259964942932	-0.02745880931615814	-2.469568252563477	0.1247063875198364	0.02325138263404366	0.4665088951587677	0.1000000014901161	0.1000000014901161	-0.1000000014901161	2.465330362319946	2.319017648696899	0.3351688981056214	0.09419558197259903	0.3668419122695923	0.3882343471050262	0.1000000014901161	0.1000000014901161	-0.1000000014901161	
